<?xml version="1.0" encoding="utf-8"?>
<!-- Generator: Adobe Illustrator 21.1.0, SVG Export Plug-In . SVG Version: 6.00 Build 0)  -->
<svg version="1.1" id="illu-06" xmlns="http://www.w3.org/2000/svg" xmlns:xlink="http://www.w3.org/1999/xlink" x="0px" y="0px"
	 viewBox="0 0 600 498.2" style="enable-background:new 0 0 600 498.2;" xml:space="preserve">
<style type="text/css">
	#illu-06 .st0{opacity:0.2;}
	#illu-06 .st1{fill:#C7E1F9;}
	#illu-06 .st2{opacity:0.5026;}
	#illu-06 .st3{opacity:0.3;}
	#illu-06 .st4{opacity:0.2;fill:#5275A0;enable-background:new    ;}
	#illu-06 .st5{fill:#FFFFFF;}
	#illu-06 .st6{fill:#78B1EA;}
	#illu-06 .st7{fill:#D1EBFF;}
	#illu-06 .st8{opacity:0.3417;fill:#D1EBFF;enable-background:new    ;}
	#illu-06 .st9{fill:#DFE3E5;}
	#illu-06 .st10{fill:url(#SVGID_1_);}
	#illu-06 .st11{opacity:0.2238;fill:none;stroke:#D6451E;stroke-width:0.7555;stroke-miterlimit:10;enable-background:new    ;}
	#illu-06 .st12{opacity:0.2412;fill:url(#SVGID_2_);enable-background:new    ;}
	#illu-06 .st13{opacity:0.2412;fill:url(#SVGID_3_);enable-background:new    ;}
	#illu-06 .st14{fill:none;stroke:#F9D938;stroke-width:0.7555;stroke-miterlimit:10;}
	#illu-06 .st15{fill:url(#SVGID_4_);}
	#illu-06 .st16{fill:none;stroke:#4D70FF;stroke-width:1.0103;stroke-linecap:round;stroke-linejoin:round;stroke-miterlimit:10;}
	#illu-06 .st17{fill:#4D70FF;}
	#illu-06 .st18{fill:none;stroke:#4D70FF;stroke-width:0.8976;stroke-linecap:round;stroke-linejoin:round;stroke-miterlimit:10;}
	#illu-06 .st19{fill:none;stroke:#00FCFF;stroke-width:1.0103;stroke-linecap:round;stroke-linejoin:round;stroke-miterlimit:10;}
	#illu-06 .st20{fill:none;stroke:#00FCFF;stroke-width:0.9959;stroke-linecap:round;stroke-linejoin:round;stroke-miterlimit:10;}
	#illu-06 .st21{fill:none;stroke:#FF4F92;stroke-width:0.8976;stroke-linecap:round;stroke-linejoin:round;stroke-miterlimit:10;}
	#illu-06 .st22{fill:none;stroke:#FF4F92;stroke-width:1.1717;stroke-linecap:round;stroke-linejoin:round;stroke-miterlimit:10;}
	#illu-06 .st23{fill:none;stroke:#FF8B00;stroke-width:1.0103;stroke-linecap:round;stroke-linejoin:round;stroke-miterlimit:10;}
	#illu-06 .st24{fill:#FFE1BD;}
	#illu-06 .st25{fill:#2D24A3;}
	#illu-06 .st26{opacity:0.2;enable-background:new    ;}
	#illu-06 .st27{fill:#F4D5B5;}
	#illu-06 .st28{fill:#8C4200;}
	#illu-06 .st29{fill:#E8C5A0;}
	#illu-06 .st30{fill:#E5BB98;}
	#illu-06 .st31{fill:#632F00;}
	#illu-06 .st32{opacity:0.27;fill:#2D24A3;enable-background:new    ;}
	#illu-06 .st33{fill:#402C2C;}
	#illu-06 .st34{opacity:0.2;fill:#474747;enable-background:new    ;}
	#illu-06 .st35{fill:#006466;}
	#illu-06 .st36{fill:#00D5CF;}
	#illu-06 .st37{fill:#00AD9F;}
	#illu-06 .st38{font-family:'FontAwesome5FreeSolid';}
	#illu-06 .st39{font-size:42.0522px;}
	#illu-06 .st40{opacity:0.45;fill:#04004C;enable-background:new    ;}
	#illu-06 .st41{fill:#0B0B3A;}
	#illu-06 .st42{fill:#007D87;}
	#illu-06 .st43{opacity:0.38;fill:#006466;enable-background:new    ;}
	#illu-06 .st44{fill:url(#SVGID_5_);}
	#illu-06 .st45{fill:none;stroke:#A8A8A8;stroke-width:0.7555;stroke-miterlimit:10;}
	#illu-06 .st46{fill:none;stroke:#3B2F7C;stroke-width:0.7555;stroke-miterlimit:10;}
	#illu-06 .st47{fill:none;stroke:#3B2F7C;stroke-width:0.7555;stroke-linecap:round;stroke-linejoin:round;stroke-miterlimit:10;}
</style>
<g class="st0">
	<path class="st1" d="M427.8,99.5h9.5c1.2,0,2.3-1,2.3-2.3v-22c0-1.2-1-2.3-2.3-2.3h-9.5c-0.3-1.2-0.6-2.3-0.9-3.4l8.2-4.7
		c1.1-0.6,1.4-2,0.8-3.1l-11-19c-0.6-1.1-2-1.4-3.1-0.8l-8.2,4.7c-0.8-0.9-1.7-1.7-2.5-2.5l0,0l4.7-8.2c0.6-1.1,0.3-2.5-0.8-3.1
		l-19-11c-1.1-0.6-2.5-0.3-3.1,0.8l-4.7,8.2c-1.1-0.3-2.3-0.7-3.4-0.9l0,0v-9.5c0-1.2-1-2.3-2.3-2.3h-22c-1.2,0-2.3,1-2.3,2.3v9.5
		l0,0c-1.2,0.3-2.3,0.6-3.4,0.9l-4.7-8.2c-0.6-1.1-2-1.4-3.1-0.8l-19,11c-1.1,0.6-1.4,2-0.8,3.1l4.7,8.2l0,0
		c-0.9,0.8-1.7,1.7-2.5,2.5l-8.2-4.7c-1.1-0.6-2.5-0.3-3.1,0.8l-11,19c-0.6,1.1-0.3,2.5,0.8,3.1l8.2,4.7c-0.3,1.1-0.7,2.3-0.9,3.4
		h-9.5c-1.2,0-2.3,1-2.3,2.3v22c0,1.2,1,2.3,2.3,2.3h9.5c0.3,1.2,0.6,2.3,0.9,3.4l0,0l-8.2,4.7c-1.1,0.6-1.4,2-0.8,3.1l11,19
		c0.6,1.1,2,1.4,3.1,0.8l8.2-4.7c0.8,0.9,1.7,1.7,2.5,2.5l0,0l-4.7,8.2c-0.6,1.1-0.3,2.5,0.8,3.1l19,11c1.1,0.6,2.5,0.3,3.1-0.8
		l4.7-8.2c1.1,0.3,2.3,0.7,3.4,0.9l0,0v9.5c0,1.2,1,2.3,2.3,2.3h22c1.2,0,2.3-1,2.3-2.3v-9.5l0,0c1.2-0.3,2.3-0.6,3.4-0.9l4.7,8.2
		c0.6,1.1,2,1.4,3.1,0.8l19-11c1.1-0.6,1.4-2,0.8-3.1l-4.7-8.2l0,0c0.9-0.8,1.7-1.7,2.5-2.5l8.2,4.7c1.1,0.6,2.5,0.3,3.1-0.8l11-19
		c0.6-1.1,0.3-2.5-0.8-3.1l-8.2-4.7l0,0C427.2,101.8,427.5,100.6,427.8,99.5z M377.8,117.8c-22.5,4.5-42.4-15.4-37.9-37.9
		c2.5-12.7,12.6-22.7,25.3-25.2c22.5-4.5,42.3,15.4,37.8,37.8C400.5,105.1,390.4,115.2,377.8,117.8z"/>
</g>
<g class="st2">
	<path class="st1" d="M258.2,408h9.5c1.2,0,2.3-1,2.3-2.3v-22c0-1.2-1-2.3-2.3-2.3h-9.5c-0.3-1.2-0.6-2.3-0.9-3.4l8.2-4.7
		c1.1-0.6,1.4-2,0.8-3.1l-11-19c-0.6-1.1-2-1.4-3.1-0.8l-8.2,4.7c-0.8-0.9-1.7-1.7-2.5-2.5l0,0l4.7-8.2c0.6-1.1,0.3-2.5-0.8-3.1
		l-19-11c-1.1-0.6-2.5-0.3-3.1,0.8l-4.7,8.2c-1.1-0.3-2.3-0.7-3.4-0.9l0,0v-9.5c0-1.2-1-2.3-2.3-2.3h-22c-1.2,0-2.3,1-2.3,2.3v9.5
		l0,0c-1.2,0.3-2.3,0.6-3.4,0.9l-4.7-8.2c-0.6-1.1-2-1.4-3.1-0.8l-19,11c-1.1,0.6-1.4,2-0.8,3.1l4.7,8.2l0,0
		c-0.9,0.8-1.7,1.7-2.5,2.5l-8.2-4.7c-1.1-0.6-2.5-0.3-3.1,0.8l-11,19c-0.6,1.1-0.3,2.5,0.8,3.1l8.2,4.7c-0.3,1.1-0.7,2.3-0.9,3.4
		h-9.5c-1.2,0-2.3,1-2.3,2.3v22c0,1.2,1,2.3,2.3,2.3h9.5c0.3,1.2,0.6,2.3,0.9,3.4l0,0l-8.2,4.7c-1.1,0.6-1.4,2-0.8,3.1l11,19
		c0.6,1.1,2,1.4,3.1,0.8l8.2-4.7c0.8,0.9,1.7,1.7,2.5,2.5l0,0l-4.7,8.2c-0.6,1.1-0.3,2.5,0.8,3.1l19,11c1.1,0.6,2.5,0.3,3.1-0.8
		l4.7-8.2c1.1,0.3,2.3,0.7,3.4,0.9l0,0v9.5c0,1.2,1,2.3,2.3,2.3h22c1.2,0,2.3-1,2.3-2.3V451l0,0c1.2-0.3,2.3-0.6,3.4-0.9l4.7,8.2
		c0.6,1.1,2,1.4,3.1,0.8l19-11c1.1-0.6,1.4-2,0.8-3.1l-4.7-8.2l0,0c0.9-0.8,1.7-1.7,2.5-2.5l8.2,4.7c1.1,0.6,2.5,0.3,3.1-0.8l11-19
		c0.6-1.1,0.3-2.5-0.8-3.1l-8.2-4.7l0,0C257.6,410.3,258,409.2,258.2,408z M208.2,426.3c-22.5,4.5-42.4-15.4-37.9-37.9
		c2.5-12.7,12.6-22.7,25.3-25.2c22.5-4.5,42.3,15.4,37.8,37.8C230.9,413.7,220.9,423.8,208.2,426.3z"/>
</g>
<g class="st0">
	<path class="st1" d="M370.4,388.8h5.3c0.7,0,1.2-0.6,1.2-1.2v-12.2c0-0.7-0.6-1.2-1.2-1.2h-5.3c-0.1-0.6-0.3-1.3-0.5-1.9l4.5-2.6
		c0.6-0.3,0.8-1.1,0.5-1.7l-6.1-10.5c-0.3-0.6-1.1-0.8-1.7-0.5l-4.6,2.6c-0.5-0.5-0.9-0.9-1.4-1.4l0,0l2.6-4.6
		c0.3-0.6,0.1-1.4-0.5-1.7l-10.5-6.1c-0.6-0.3-1.4-0.1-1.7,0.5l-2.6,4.6c-0.6-0.2-1.3-0.4-1.9-0.5l0,0V345c0-0.7-0.6-1.2-1.2-1.2
		h-12.2c-0.7,0-1.2,0.6-1.2,1.2v5.3l0,0c-0.6,0.1-1.3,0.3-1.9,0.5l-2.6-4.6c-0.3-0.6-1.1-0.8-1.7-0.5l-10.5,6.1
		c-0.6,0.3-0.8,1.1-0.5,1.7l2.6,4.6l0,0c-0.5,0.5-0.9,0.9-1.4,1.4l-4.6-2.6c-0.6-0.3-1.4-0.1-1.7,0.5l-6.1,10.5
		c-0.3,0.6-0.1,1.4,0.5,1.7l4.5,2.6c-0.2,0.6-0.4,1.3-0.5,1.9h-5.3c-0.7,0-1.2,0.6-1.2,1.2v12.2c0,0.7,0.6,1.2,1.2,1.2h5.3
		c0.1,0.6,0.3,1.3,0.5,1.9l0,0l-4.5,2.6c-0.6,0.3-0.8,1.1-0.5,1.7l6.1,10.5c0.3,0.6,1.1,0.8,1.7,0.5l4.6-2.6
		c0.5,0.5,0.9,0.9,1.4,1.4l0,0l-2.6,4.6c-0.3,0.6-0.1,1.4,0.5,1.7l10.5,6.1c0.6,0.3,1.4,0.1,1.7-0.5l2.6-4.6
		c0.6,0.2,1.3,0.4,1.9,0.5l0,0v5.3c0,0.7,0.6,1.2,1.2,1.2h12.2c0.7,0,1.2-0.6,1.2-1.2v-5.3l0,0c0.6-0.1,1.3-0.3,1.9-0.5l2.6,4.6
		c0.3,0.6,1.1,0.8,1.7,0.5l10.5-6.1c0.6-0.3,0.8-1.1,0.5-1.7l-2.6-4.6l0,0c0.5-0.5,0.9-0.9,1.4-1.4l4.6,2.6c0.6,0.3,1.4,0.1,1.7-0.5
		l6.1-10.5c0.3-0.6,0.1-1.4-0.5-1.7l-4.5-2.6l0,0C370.1,390,370.3,389.4,370.4,388.8z M342.7,398.9c-12.5,2.5-23.5-8.5-21-21
		c1.4-7,7-12.6,14-14c12.4-2.5,23.4,8.5,21,21C355.3,391.9,349.8,397.5,342.7,398.9z"/>
</g>
<g class="st3">
	<path class="st1" d="M83.2,73.3h4.6c0.6,0,1.1-0.5,1.1-1.1V61.5c0-0.6-0.5-1.1-1.1-1.1h-4.6c-0.1-0.6-0.3-1.1-0.4-1.7l4-2.3
		c0.5-0.3,0.7-1,0.4-1.5l-5.3-9.3c-0.3-0.5-1-0.7-1.5-0.4l-4,2.3c-0.4-0.4-0.8-0.8-1.2-1.2l0,0l2.3-4c0.3-0.5,0.1-1.2-0.4-1.5
		l-9.3-5.3c-0.5-0.3-1.2-0.1-1.5,0.4l-2.3,4c-0.5-0.2-1.1-0.3-1.7-0.4l0,0v-4.6c0-0.6-0.5-1.1-1.1-1.1H50.4c-0.6,0-1.1,0.5-1.1,1.1
		v4.6l0,0c-0.6,0.1-1.1,0.3-1.7,0.4l-2.3-4c-0.3-0.5-1-0.7-1.5-0.4l-9.3,5.3c-0.5,0.3-0.7,1-0.4,1.5l2.3,4l0,0
		c-0.4,0.4-0.8,0.8-1.2,1.2l-4-2.3c-0.5-0.3-1.2-0.1-1.5,0.4l-5.3,9.3c-0.3,0.5-0.1,1.2,0.4,1.5l4,2.3c-0.2,0.5-0.3,1.1-0.4,1.7
		h-4.6c-0.6,0-1.1,0.5-1.1,1.1v10.7c0,0.6,0.5,1.1,1.1,1.1h4.6c0.1,0.6,0.3,1.1,0.4,1.7l0,0l-4,2.3c-0.5,0.3-0.7,1-0.4,1.5l5.3,9.3
		c0.3,0.5,1,0.7,1.5,0.4l4-2.3c0.4,0.4,0.8,0.8,1.2,1.2l0,0l-2.3,4c-0.3,0.5-0.1,1.2,0.4,1.5l9.3,5.3c0.5,0.3,1.2,0.1,1.5-0.4l2.3-4
		c0.5,0.2,1.1,0.3,1.7,0.4l0,0v4.6c0,0.6,0.5,1.1,1.1,1.1h10.7c0.6,0,1.1-0.5,1.1-1.1v-4.6l0,0c0.6-0.1,1.1-0.3,1.7-0.4l2.3,4
		c0.3,0.5,1,0.7,1.5,0.4l9.3-5.3c0.5-0.3,0.7-1,0.4-1.5l-2.3-4l0,0c0.4-0.4,0.8-0.8,1.2-1.2l4,2.3c0.5,0.3,1.2,0.1,1.5-0.4l5.3-9.3
		c0.3-0.5,0.1-1.2-0.4-1.5l-4-2.3l0,0C82.9,74.4,83,73.8,83.2,73.3z M58.9,82.1C48,84.3,38.3,74.6,40.5,63.7
		c1.2-6.2,6.1-11,12.3-12.3c10.9-2.2,20.5,7.5,18.4,18.4C69.9,76,65,80.9,58.9,82.1z"/>
</g>
<g class="st3">
	<path class="st1" d="M120.8,34.5h2.8c0.4,0,0.7-0.3,0.7-0.7v-6.4c0-0.4-0.3-0.7-0.7-0.7h-2.8c-0.1-0.3-0.2-0.7-0.3-1l2.4-1.4
		c0.3-0.2,0.4-0.6,0.2-0.9l-3.2-5.6c-0.2-0.3-0.6-0.4-0.9-0.2l-2.4,1.4c-0.2-0.3-0.5-0.5-0.7-0.7l0,0l1.4-2.4
		c0.2-0.3,0.1-0.7-0.2-0.9l-5.6-3.2c-0.3-0.2-0.7-0.1-0.9,0.2l-1.4,2.4c-0.3-0.1-0.7-0.2-1-0.3l0,0v-2.8c0-0.4-0.3-0.7-0.7-0.7h-6.4
		c-0.4,0-0.7,0.3-0.7,0.7v2.8l0,0c-0.3,0.1-0.7,0.2-1,0.3L98,12c-0.2-0.3-0.6-0.4-0.9-0.2L91.6,15c-0.3,0.2-0.4,0.6-0.2,0.9l1.4,2.4
		l0,0c-0.3,0.2-0.5,0.5-0.7,0.7l-2.4-1.4c-0.3-0.2-0.7-0.1-0.9,0.2l-3.2,5.6c-0.2,0.3-0.1,0.7,0.2,0.9l2.4,1.4
		c-0.1,0.3-0.2,0.7-0.3,1h-2.8c-0.4,0-0.7,0.3-0.7,0.7v6.4c0,0.4,0.3,0.7,0.7,0.7h2.8c0.1,0.3,0.2,0.7,0.3,1l0,0l-2.4,1.4
		c-0.3,0.2-0.4,0.6-0.2,0.9l3.2,5.6c0.2,0.3,0.6,0.4,0.9,0.2l2.4-1.4c0.2,0.3,0.5,0.5,0.7,0.7l0,0l-1.4,2.4
		c-0.2,0.3-0.1,0.7,0.2,0.9l5.6,3.2c0.3,0.2,0.7,0.1,0.9-0.2l1.4-2.4c0.3,0.1,0.7,0.2,1,0.3l0,0v2.8c0,0.4,0.3,0.7,0.7,0.7h6.4
		c0.4,0,0.7-0.3,0.7-0.7v-2.8l0,0c0.3-0.1,0.7-0.2,1-0.3l1.4,2.4c0.2,0.3,0.6,0.4,0.9,0.2l5.6-3.2c0.3-0.2,0.4-0.6,0.2-0.9l-1.4-2.4
		l0,0c0.3-0.2,0.5-0.5,0.7-0.7l2.4,1.4c0.3,0.2,0.7,0.1,0.9-0.2l3.2-5.6c0.2-0.3,0.1-0.7-0.2-0.9l-2.4-1.4l0,0
		C120.6,35.2,120.7,34.9,120.8,34.5z M106.2,39.9c-6.6,1.3-12.4-4.5-11.1-11.1c0.7-3.7,3.7-6.6,7.4-7.4c6.6-1.3,12.4,4.5,11.1,11.1
		C112.8,36.2,109.9,39.1,106.2,39.9z"/>
</g>
<path class="st4" d="M545.1,390L109,390.9c-5.8,0-10.5-4.7-10.6-10.5L97.8,91.5c0-5.8,4.7-10.5,10.5-10.6L544.4,80
	c5.8,0,10.5,4.7,10.6,10.5l0.6,288.9C555.6,385.3,550.9,390,545.1,390z"/>
<path class="st5" d="M565.1,370L565.1,370c0,5.8-4.7,10.5-10.5,10.6l-279.1,0.6l-157,0.3c-5.8,0-10.6-4.7-10.6-10.5l-0.6-289
	c0-5.8,4.7-10.5,10.5-10.6l436.1-0.9c5.8,0,10.6,4.7,10.6,10.5v11.3L565.1,370z"/>
<path class="st6" d="M553.2,73l-434.3,0.9c-6.3,0-11.5,5.2-11.4,11.5v10l457.2-0.9v-10C564.7,78.2,559.5,73,553.2,73z"/>
<path class="st5" d="M173.8,361.9l-50.1,0.1c-2.4,0-4.3-1.9-4.3-4.3l0,0c0-2.4,1.9-4.3,4.3-4.3l50.1-0.1c2.4,0,4.3,1.9,4.3,4.3l0,0
	C178,360,176.1,361.9,173.8,361.9z"/>
<path class="st7" d="M261,315.1H125.2c-1.7,0-3.1-1.4-3.1-3.1v-35.9c0-1.7,1.4-3.1,3.1-3.1H261c1.7,0,3.1,1.4,3.1,3.1V312
	C264.1,313.8,262.7,315.1,261,315.1z"/>
<path class="st8" d="M269.4,303.9H133.6c-1.7,0-3.1-1.4-3.1-3.1v-35.9c0-1.7,1.4-3.1,3.1-3.1h135.8c1.7,0,3.1,1.4,3.1,3.1v35.9
	C272.5,302.5,271.1,303.9,269.4,303.9z"/>
<ellipse transform="matrix(1 -2.069643e-03 2.069643e-03 1 -0.1746 0.267)" class="st5" cx="128.9" cy="84.5" rx="3.7" ry="3.7"/>
<ellipse transform="matrix(1 -2.018594e-03 2.018594e-03 1 -0.1701 0.2919)" class="st5" cx="144.5" cy="84.4" rx="3.7" ry="3.7"/>
<ellipse transform="matrix(1 -2.069643e-03 2.069643e-03 1 -0.1743 0.3317)" class="st5" cx="160.2" cy="84.4" rx="3.7" ry="3.7"/>
<path class="st8" d="M524.5,318.9H360.3c-1.7,0-3.1-1.4-3.1-3.1v-87.3c0-1.7,1.4-3.1,3.1-3.1h164.1c1.7,0,3.1,1.4,3.1,3.1v87.3
	C527.6,317.5,526.2,318.9,524.5,318.9z"/>
<path class="st7" d="M532.2,328.2H368.1c-1.7,0-3.1-1.4-3.1-3.1v-96.8c0-1.7,1.4-3.1,3.1-3.1h164.1c1.7,0,3.1,1.4,3.1,3.1v96.8
	C535.4,326.8,534,328.2,532.2,328.2z"/>
<g>
	<path class="st9" d="M357.6,352.8l-76,0.2c-0.7,0-1.3-0.6-1.3-1.3l0,0c0-0.7,0.6-1.3,1.3-1.3l76-0.2c0.7,0,1.3,0.6,1.3,1.3l0,0
		C358.9,352.2,358.3,352.8,357.6,352.8z"/>
	<path class="st9" d="M357.6,347l-76,0.2c-0.7,0-1.3-0.6-1.3-1.3l0,0c0-0.7,0.6-1.3,1.3-1.3l76-0.2c0.7,0,1.3,0.6,1.3,1.3l0,0
		C358.9,346.4,358.3,347,357.6,347z"/>
	<path class="st9" d="M357.6,358.5l-76,0.2c-0.7,0-1.3-0.6-1.3-1.3l0,0c0-0.7,0.6-1.3,1.3-1.3l76-0.2c0.7,0,1.3,0.6,1.3,1.3l0,0
		C358.9,358,358.3,358.5,357.6,358.5z"/>
	<path class="st9" d="M357.6,364.3l-76,0.2c-0.7,0-1.3-0.6-1.3-1.3l0,0c0-0.7,0.6-1.3,1.3-1.3l76-0.2c0.7,0,1.3,0.6,1.3,1.3l0,0
		C358.9,363.7,358.3,364.3,357.6,364.3z"/>
	<path class="st9" d="M339.6,370.1l-58.1,0.1c-0.7,0-1.3-0.6-1.3-1.3l0,0c0-0.7,0.6-1.3,1.3-1.3l58.1-0.1c0.7,0,1.3,0.6,1.3,1.3l0,0
		C341,369.5,340.4,370.1,339.6,370.1z"/>
</g>
<g>
	<path class="st9" d="M445.5,352.8l-76,0.2c-0.7,0-1.3-0.6-1.3-1.3l0,0c0-0.7,0.6-1.3,1.3-1.3l76-0.2c0.7,0,1.3,0.6,1.3,1.3l0,0
		C446.8,352.2,446.2,352.8,445.5,352.8z"/>
	<path class="st9" d="M445.4,347l-76,0.2c-0.7,0-1.3-0.6-1.3-1.3l0,0c0-0.7,0.6-1.3,1.3-1.3l76-0.2c0.7,0,1.3,0.6,1.3,1.3l0,0
		C446.8,346.4,446.2,347,445.4,347z"/>
	<path class="st9" d="M445.5,358.6l-76,0.2c-0.7,0-1.3-0.6-1.3-1.3l0,0c0-0.7,0.6-1.3,1.3-1.3l76-0.2c0.7,0,1.3,0.6,1.3,1.3l0,0
		C446.8,358,446.2,358.6,445.5,358.6z"/>
	<path class="st9" d="M445.5,364.4l-76,0.2c-0.7,0-1.3-0.6-1.3-1.3l0,0c0-0.7,0.6-1.3,1.3-1.3l76-0.2c0.7,0,1.3,0.6,1.3,1.3l0,0
		C446.8,363.8,446.2,364.4,445.5,364.4z"/>
	<path class="st9" d="M427.5,370.1l-58.1,0.1c-0.7,0-1.3-0.6-1.3-1.3l0,0c0-0.7,0.6-1.3,1.3-1.3l58.1-0.1c0.7,0,1.3,0.6,1.3,1.3l0,0
		C428.8,369.5,428.2,370.1,427.5,370.1z"/>
</g>
<g>
	<path class="st9" d="M533.3,352.8l-76,0.2c-0.7,0-1.3-0.6-1.3-1.3l0,0c0-0.7,0.6-1.3,1.3-1.3l76-0.2c0.7,0,1.3,0.6,1.3,1.3l0,0
		C534.6,352.2,534,352.8,533.3,352.8z"/>
	<path class="st9" d="M533.3,347l-76,0.2c-0.7,0-1.3-0.6-1.3-1.3l0,0c0-0.7,0.6-1.3,1.3-1.3l76-0.2c0.7,0,1.3,0.6,1.3,1.3l0,0
		C534.6,346.4,534,347,533.3,347z"/>
	<path class="st9" d="M533.3,358.6l-76,0.2c-0.7,0-1.3-0.6-1.3-1.3l0,0c0-0.7,0.6-1.3,1.3-1.3l76-0.2c0.7,0,1.3,0.6,1.3,1.3l0,0
		C534.6,358,534,358.6,533.3,358.6z"/>
	<path class="st9" d="M533.3,364.4l-76,0.2c-0.7,0-1.3-0.6-1.3-1.3l0,0c0-0.7,0.6-1.3,1.3-1.3l76-0.2c0.7,0,1.3,0.6,1.3,1.3l0,0
		C534.6,363.8,534,364.4,533.3,364.4z"/>
	<path class="st9" d="M515.4,370.1l-58.1,0.1c-0.7,0-1.3-0.6-1.3-1.3l0,0c0-0.7,0.6-1.3,1.3-1.3l58.1-0.1c0.7,0,1.3,0.6,1.3,1.3l0,0
		C516.7,369.5,516.1,370.1,515.4,370.1z"/>
</g>
<g>
	<path class="st9" d="M150.6,368.4h-24.1c-0.7,0-1.3-0.6-1.3-1.3l0,0c0-0.7,0.6-1.3,1.3-1.3h24.1c0.7,0,1.3,0.6,1.3,1.3l0,0
		C151.9,367.8,151.4,368.4,150.6,368.4z"/>
	<path class="st9" d="M187.5,368.4h-24.1c-0.7,0-1.3-0.6-1.3-1.3l0,0c0-0.7,0.6-1.3,1.3-1.3h24.1c0.7,0,1.3,0.6,1.3,1.3l0,0
		C188.8,367.8,188.2,368.4,187.5,368.4z"/>
	<path class="st9" d="M224.4,368.4h-24.1c-0.7,0-1.3-0.6-1.3-1.3l0,0c0-0.7,0.6-1.3,1.3-1.3h24.1c0.7,0,1.3,0.6,1.3,1.3l0,0
		C225.7,367.8,225.1,368.4,224.4,368.4z"/>
	<path class="st9" d="M261.3,368.4h-24.1c-0.7,0-1.3-0.6-1.3-1.3l0,0c0-0.7,0.6-1.3,1.3-1.3h24.1c0.7,0,1.3,0.6,1.3,1.3l0,0
		C262.6,367.8,262,368.4,261.3,368.4z"/>
</g>
<g>
	<path class="st4" d="M520.7,260.5L520.7,260.5c0,2.5-1.9,4.6-4.3,4.6l-113.8,0.2l-64.1,0.1c-2.4,0-4.3-2-4.3-4.6L333.9,135
		c0-2.5,1.9-4.6,4.3-4.6l177.9-0.4c2.4,0,4.3,2,4.3,4.6v4.9L520.7,260.5z"/>
	
		<linearGradient id="SVGID_1_" gradientUnits="userSpaceOnUse" x1="483.2642" y1="356.9206" x2="341.5641" y2="248.5058" gradientTransform="matrix(1 0 0 -1 0 500)">
		<stop  offset="0" style="stop-color:#FF6E3A"/>
		<stop  offset="0.9826" style="stop-color:#FFB846"/>
	</linearGradient>
	<path class="st10" d="M514.7,253.2L514.7,253.2c0,2.5-1.9,4.6-4.3,4.6L396.6,258l-64.1,0.1c-2.4,0-4.3-2-4.3-4.6L328,127.7
		c0-2.5,1.9-4.6,4.3-4.6l177.9-0.4c2.4,0,4.3,2,4.3,4.6v4.9L514.7,253.2z"/>
	<polyline class="st11" points="501.9,246.9 340.8,246.9 340.8,137.8 	"/>
	
		<linearGradient id="SVGID_2_" gradientUnits="userSpaceOnUse" x1="340.8" y1="301.05" x2="500.4" y2="301.05" gradientTransform="matrix(1 0 0 -1 0 500)">
		<stop  offset="0" style="stop-color:#FFFFFF"/>
		<stop  offset="1" style="stop-color:#FFFFFF;stop-opacity:0"/>
	</linearGradient>
	<polygon class="st12" points="340.8,215.8 381.7,173 392.3,189.9 407.8,151.1 418.7,183.5 432,162.3 450.5,201.4 484.9,162.1 
		500.4,194.7 500.4,246.8 340.8,246.8 	"/>
	
		<linearGradient id="SVGID_3_" gradientUnits="userSpaceOnUse" x1="420.6" y1="329.122" x2="420.6" y2="254.061" gradientTransform="matrix(1 0 0 -1 0 500)">
		<stop  offset="0" style="stop-color:#FFFFFF"/>
		<stop  offset="1" style="stop-color:#FFFFFF;stop-opacity:0"/>
	</linearGradient>
	<polygon class="st13" points="340.8,202.2 386.2,222.2 419.9,153.7 438.3,202.2 468.5,170.6 500.4,205.1 500.4,246.8 340.8,246.8 	
		"/>
	<line class="st14" x1="476" y1="136" x2="499.2" y2="136"/>
	<line class="st14" x1="476" y1="139.8" x2="499.2" y2="139.8"/>
	<line class="st14" x1="476" y1="143.6" x2="499.2" y2="143.6"/>
	<line class="st14" x1="461" y1="136" x2="471.5" y2="136"/>
	<line class="st14" x1="461" y1="139.8" x2="471.5" y2="139.8"/>
	<line class="st14" x1="461" y1="143.6" x2="471.5" y2="143.6"/>
	<path class="st11" d="M350.4,184.1c6.4,3.2,10.3,9.7,13.3,16.1c3,6.4,5.5,13.3,10.2,18.6s12.6,8.6,19.1,5.6c5.7-2.6,8.4-9,10.5-15
		c6-17.3,10.4-35,13.3-53.1c0.4-2.7,0.8-5.4,2.1-7.8c1.3-2.4,3.7-4.4,6.4-4.4c3.2,0,5.8,2.5,7.8,4.9c13.5,16.5,19.3,37.8,30.8,55.8
		c2.2,3.5,5.2,7.2,9.3,7.6c3.3,0.4,6.4-1.5,9.1-3.4c8.1-5.7,15.2-12.8,21-20.9"/>
	<g>
		<circle class="st5" cx="350.4" cy="183.5" r="1.2"/>
		<circle class="st5" cx="369.8" cy="213.2" r="1.2"/>
		<circle class="st5" cx="414.1" cy="170.2" r="1.2"/>
		<circle class="st5" cx="410.8" cy="184.1" r="1.2"/>
		<circle class="st5" cx="503.2" cy="188.4" r="1.2"/>
		<circle class="st5" cx="494.4" cy="198.4" r="1.2"/>
		<circle class="st5" cx="407" cy="197.7" r="1.2"/>
		<circle class="st5" cx="453.9" cy="186.6" r="1.2"/>
	</g>
</g>
<g>
	<path class="st4" d="M314.8,239.7L314.8,239.7c0,2.5-1.9,4.6-4.3,4.6l-113.8,0.2l-64.1,0.1c-2.4,0-4.3-2-4.3-4.6l-0.2-105
		c0-2.5,1.9-4.6,4.3-4.6l177.9-0.4c2.4,0,4.3,2,4.3,4.6v4.9L314.8,239.7z"/>
	
		<linearGradient id="SVGID_4_" gradientUnits="userSpaceOnUse" x1="273.9688" y1="364.6462" x2="140.141" y2="262.2545" gradientTransform="matrix(1 0 0 -1 0 500)">
		<stop  offset="0" style="stop-color:#22115B"/>
		<stop  offset="1" style="stop-color:#401B89"/>
	</linearGradient>
	<path class="st15" d="M308.9,232.5L308.9,232.5c0,2.5-1.9,4.6-4.3,4.6l-113.8,0.2l-64.1,0.1c-2.4,0-4.3-2-4.3-4.6l-0.2-105.2
		c0-2.5,1.9-4.6,4.3-4.6l177.9-0.4c2.4,0,4.3,2,4.3,4.6v4.9L308.9,232.5z"/>
</g>
<circle class="st7" cx="310.2" cy="300.3" r="25.9"/>
<circle class="st5" cx="310.2" cy="300.3" r="11.2"/>
<polygon class="st5" points="319.6,272.1 309.4,300.3 342.2,292.6 "/>
<g>
	<polyline class="st16" points="139.7,134.1 133,140.8 139.7,147.5 	"/>
	<polyline class="st16" points="156.6,134.1 163.3,140.8 156.6,147.5 	"/>
	<line class="st16" x1="145.3" y1="148.7" x2="150.7" y2="134.1"/>
	<circle class="st17" cx="170.5" cy="148.8" r="1.9"/>
	<circle class="st17" cx="178.3" cy="148.8" r="1.9"/>
	<circle class="st17" cx="186.1" cy="148.8" r="1.9"/>
	<line class="st18" x1="136.4" y1="162.4" x2="294.3" y2="162.4"/>
	<line class="st19" x1="136.4" y1="170.8" x2="262.7" y2="170.8"/>
	<line class="st20" x1="272.5" y1="170.8" x2="294.3" y2="170.8"/>
	<line class="st20" x1="294.3" y1="179.9" x2="242.6" y2="179.9"/>
	<line class="st19" x1="234.2" y1="179.9" x2="221.8" y2="179.9"/>
	<line class="st19" x1="212" y1="179.9" x2="199.6" y2="179.9"/>
	<line class="st19" x1="189.8" y1="179.9" x2="177.4" y2="179.9"/>
	<line class="st19" x1="167.5" y1="179.9" x2="155.2" y2="179.9"/>
	<line class="st21" x1="294.3" y1="191" x2="151.2" y2="191"/>
	<line class="st19" x1="140.9" y1="179.9" x2="136.4" y2="179.9"/>
	<line class="st19" x1="140.9" y1="191" x2="136.4" y2="191"/>
	<line class="st19" x1="140.9" y1="202.1" x2="136.4" y2="202.1"/>
	<line class="st19" x1="140.9" y1="213.2" x2="136.4" y2="213.2"/>
	<line class="st22" x1="154.7" y1="202.1" x2="208.4" y2="202.1"/>
	<line class="st22" x1="154.7" y1="213.5" x2="226" y2="213.5"/>
	<line class="st22" x1="154.7" y1="224.9" x2="251.3" y2="224.9"/>
	<line class="st23" x1="214.1" y1="202.1" x2="294.3" y2="202.1"/>
	<line class="st23" x1="231.1" y1="213.5" x2="294.3" y2="213.5"/>
	<line class="st23" x1="257.3" y1="224.9" x2="294.3" y2="224.9"/>
</g>
<g>
	<g>
		<path class="st24" d="M116.7,198.4c2-5.9,3.9-12,7.1-8.9c3.3,3.3,3.1,2.9,1.9,7.4C124.4,201.5,115,203.4,116.7,198.4z"/>
		<path class="st24" d="M120.3,190.1c1-2.8,2.7-6,4.4-7.3c1.7-1.3-0.9,3.3-1.5,5.5C122.6,190.4,119.5,192.4,120.3,190.1z"/>
	</g>
	<path class="st25" d="M117.6,221.8c2.4-9,3.6-20.6,3.6-20.6l-4.5-3c0,0-9.1,18.7-14,32.9l-25.3-6.5l-3.1-0.6l8.2,16.5
		c0,0,24.4,3.6,25.9,2.7C109.9,242.2,115.2,230.9,117.6,221.8z"/>
	<path class="st26" d="M108.4,243.1c-1.5,0.8-25.9-2.7-25.9-2.7l-8.2-16.5l3.1,0.6c2.3,1,6,4.6,9,8.6c2.2,2.8,3.4,3.8,6.6,5.1
		c5,1.9,10.3,3.2,12.3,3.3c3.4,0.2,3.7,0.4,4.4-0.6C109.7,240.9,109.9,242.2,108.4,243.1z"/>
	<path class="st25" d="M48.7,273.7c1.6,4.1,2,8.6,1,12.9c-1.9,8.5,0.3,9.1,0.3,9.1S61.6,303,71.2,306c6.9,2.1,12.8,1.8,12.6-5.8
		v-0.1c0-0.5,0-0.9,0-1.3c-0.3-17.1,3.2-18,4.1-37.1c0.9-19.7-4.3-30.6-9.5-35.4c-5.2-4.7-12.3-4.9-25.7-1.8
		c-10.1,2.4-13.4,5-13.3,12.5c0,2.5,0.4,5.5,1.1,9.2C42.1,255.4,46.1,266.7,48.7,273.7z"/>
	<path class="st26" d="M48.7,273.7c1.6,4.1,2,8.6,1,12.9c-1.9,8.5,0.3,9.1,0.3,9.1S61.6,303,71.2,306l9-0.9l3.6-2.8V300
		c0-0.5,0-0.9,0-1.3c-2.1,0.2-6.7,0.4-13.6-0.4c-5.3-0.6-10.1-2.1-13.3-3.3c-2.3-0.9-3.7-3.3-3.3-5.8c0.6-3.4,1.3-8.2,1.2-11.9
		c0-3.8-1.8-10.1-3.2-14.7c-1.1-3.5-1.5-7.2-1.2-10.9c0.4-6.4,0-12.4,0-12.4l-7.1-3.9l-4,1.5c0,2.5,0.4,5.5,1.1,9.2
		C42.1,255.4,46.1,266.7,48.7,273.7z"/>
	<path class="st27" d="M48.6,310c-0.8,0.1-2.9-3.6-2.9-3.6l0.9-1.2c0.5-0.7,1.2-1.1,2-1.4h0.1c0.7-0.2,1.5,0,1.9,0.7
		c0.6,0.9,1.5,1.9,2.6,1.9l0,0h0.1C54.3,306.4,49.4,309.8,48.6,310z"/>
	<g>
		<path class="st28" d="M81.1,191c0,0,0.9,2.5-0.5,4.5l-5.5-7.5h3.8L81.1,191z"/>
		<path class="st24" d="M51.1,200.9c0.2,9.6,8.6,15.2,8.6,15.2l-0.6,8.8l5.6,3.6l3.8,2.5l2.2-4.6l0.3-5.7c0.1-1.3,1-2.4,2.3-2.7
			c1.4-0.3,3.4-1.1,5.5-3.3c0.1-0.1,0.2-0.3,0.3-0.4l0,0c3.6-5,5-24-7.4-29.4C58.9,179.4,50.9,191.3,51.1,200.9z"/>
		<path class="st29" d="M65.1,223.3l-0.4,5.3l3.8,2.5l2.2-4.6l0.3-5.7c0.1-1.3,1-2.4,2.3-2.7c1.4-0.3,3.4-1.1,5.5-3.3
			c0.1-0.1,0.2-0.3,0.3-0.4c-0.3,0.1-3.3,1.9-7.8,2.4C68,217.1,65.3,219.9,65.1,223.3z"/>
		<path class="st28" d="M64.6,203.9c-0.5,0.2-1-0.6-1-0.6s-2.7-6.1-3.6-7c-1.7-1.7-5.6-1.5-5.9,3.7c-0.2,4,4.5,12.6,6,15.2
			c0.2,0.4,0.1,0.9-0.2,1.2c-0.2,0.1-0.4,0.2-0.5,0.2h-0.1c-0.2,0-0.4-0.1-0.6-0.2c-3.1-2.7-16.6-15.7-5.9-27.9c0,0,8.6,0.6,9.9,4.7
			c1.3,4.1,2.2,9.7,2.2,9.7S65.1,203.7,64.6,203.9z"/>
		<path class="st28" d="M81.1,191c0,0-7.5-5.8-18.9,1.3l-9.3-2.4c0,0-0.4-0.1-0.2-1.5s1.2-15.1,17.5-12
			C79.6,178.2,85.4,184.7,81.1,191z"/>
	</g>
	<path class="st5" d="M59.2,220.8c0,0-1.4,0.8-2.7,2.8c0,0,1.8,0.8,3.5,1.8c1.5,0.9,8.5,5.9,8.5,5.9l2.1-4.3
		C70.6,227,63.2,221.9,59.2,220.8z"/>
	<path class="st5" d="M70.6,227c0,0,2.5,0.8,3.2,2.7c0,0,1.3-2.4-0.4-6.7c0,0-1.4-1.3-2.4-1.7L70.6,227z"/>
	<path class="st30" d="M50.9,303.9c0,0,1.3,1.7,1.7,1.9c0.4,0.2,0.5-0.2,0.3-0.6C52.8,304.9,50.9,303.5,50.9,303.9z"/>
	<path class="st31" d="M59.3,216.6L59.3,216.6c-0.3,0-0.5-0.1-0.7-0.2c-3.1-2.7-16.6-15.7-5.9-27.9c0,0-0.5,2.1-0.3,3.9
		C52.4,192.3,45.5,203.4,59.3,216.6z"/>
	<g>
		<ellipse class="st32" cx="66" cy="477.2" rx="44.7" ry="3.4"/>
		<path class="st33" d="M43.9,464.2c0.6,2.3,0.4,3.1,0.6,4.5c0.3,1.8,2,2.5,2.9,4c1.1,1.7,2.7,4.3-3.8,4.4c-7,0.1-11.2-0.3-10-4.3
			s1.4-5.7,1.3-7c-0.1-1.3,0-2.6,0.8-3.4C36.5,461.7,42.8,460.3,43.9,464.2z"/>
		<path class="st5" d="M45.4,338c0,0-11.1-17.7,4.7-42.3c0,0,12.3,5.5,22.1,6.2c7.7,0.5,11.7-0.3,11.7-0.3s0.7,23.7,0.7,36.5H45.4
			V338z"/>
		<g>
			<g>
				<path class="st5" d="M52.8,389.4c3-12.8-9.6-15-13.5-5.8c-5.6,13.1-5.2,70.6-4.9,78.9c0,1.1,0.6,0.9,1.2,0.7
					c1.8-0.6,3.3-0.9,4-0.8c1.4,0.3,4.1,1.7,4.1,1.7C45,452.8,49.9,401.8,52.8,389.4z"/>
				<path class="st5" d="M64.1,339.7c1.3-15.9-4.7-28.2-14.2-23c-4,2.2-5.5,6.6-6,10.8c-0.5,4.2-3.5,47.4-4.5,55.2
					c-2.3,17.6,11.1,12.9,12.5,8C55.6,378.4,63.4,348.4,64.1,339.7z"/>
			</g>
		</g>
		<path class="st5" d="M86.5,388.6c0.5-11.9-9.5-11.2-13.5-2c-8.7,20,0.1,62.6,1.8,82.7c1.9-3.2,5.6-4.3,6.5-4.3
			c1.4,0.1,2.2,1.2,2.2,1.2C83.3,441.7,86,401.3,86.5,388.6z"/>
		<path class="st5" d="M73.5,389.9c1.5,4.9,14.3,10.5,13-7.2c-0.6-7.9-2.2-51.3-2.5-55.5s-1-10.3-3-11.1
			c-10.1-3.8-19.9,8.7-17.3,24.4C65.4,351,70.4,379.8,73.5,389.9z"/>
		<path class="st34" d="M83.6,466.3c-0.3-24.7,2.4-65,3-77.7c0-0.8,0-1.5,0-2.2c0.1-1.1,0-2.3-0.1-3.7c-0.1-1.6-0.3-4.7-0.5-8.6
			l-18.2-50.8L64,341.9c1.8,10.5,5.9,34.3,8.9,45.5c-8.2,20.3,0.3,62.1,2.1,82c1.9-3.2,5.6-4.3,6.5-4.3
			C82.8,465.2,83.6,466.3,83.6,466.3z"/>
		<path class="st33" d="M83.5,466.7c0.5,1,3.1,3.4,6.6,5s11,2.3,6.8,3.7c-4.1,1.4-9,0.5-11.4,0.2c-2.4-0.4-4.8-0.4-7.7-0.5
			c-3.8,0-3.8-0.3-3.3-4.6C75.2,464.6,81.8,463.3,83.5,466.7z"/>
	</g>
	<path class="st24" d="M47.9,300.4l2,2.8c0,0,3.5-0.5,5.2,2.7s-4.2,7.3-5.9,5.8s-5.3-8.4-5.3-8.4L47.9,300.4z"/>
	<path class="st25" d="M33.3,291.7c5.3,5.3,10.8,12.8,10.8,12.8l1-0.7l3.9-2.6c0,0-7.9-16.6-10.2-24.7c-1.1-3.9-3-7.1-4.7-9.4
		c0.2-0.1,0.3-0.3,0.4-0.4c5.7-6.1,10.2-14,13.6-18.8c1.6-2.3,2.8-5,3.3-7.8c0.3-1.9,0.4-3.8,0.1-5.7c-0.5-3-1.8-5.8-4.7-6.5
		c-1.1-0.3-2.2-0.2-3.2,0.2c-1.1,0.4-2.1,1.3-2.8,2.3c-4.5,7.2-17.2,26.8-19.1,31.7c-0.3,0.8-0.6,1.7-0.7,2.5
		c-0.1,0.3-0.1,0.5-0.1,0.8C20.1,273.3,28,286.3,33.3,291.7z"/>
	<path class="st26" d="M33.3,291.7c5.3,5.3,10.8,12.8,10.8,12.8l1-0.7c0,0-5.8-8.1-8.6-11.4c-4.2-5-7.2-8.9-9.7-13.6
		c-2.5-4.6-3.7-13.5-2.4-16c1.3-2.5,8.7-13.5,10.3-15.6c1.6-2.1,14.6-15.1,10.9-18.7c-0.6-0.6-1.4-0.6-2.1-0.5
		c-1.1,0.4-2.1,1.3-2.8,2.3c-4.5,7.2-17.2,26.8-19.1,31.7c-0.3,0.8-0.6,1.7-0.7,2.5c-0.1,0.3-0.1,0.5-0.1,0.8
		C20.1,273.3,28,286.3,33.3,291.7z"/>
	<path class="st5" d="M54,303.3c0,0-1.8,6.3-9.7,9.9c-6.9,3.1,11,4.9,11.4,4.2c0.4-0.7,3.8-12.2,3.8-12.2L54,303.3z"/>
</g>
<g>
	<ellipse class="st32" cx="520.4" cy="477.2" rx="60.2" ry="3.4"/>
	<path id="XMLID_39_" class="st35" d="M476.7,250.2c0,0,15.2,13.3,26.6,14.7s30.6-20.3,30.6-20.3s-1.2-11.5-8.3-10.2
		c-7.1,1.4-16.6,18.5-20.8,19.3c-4.1,0.8-25.6-8.3-25.6-8.3s-0.6,0.4-1.3,1.6C477.2,248.4,476.7,250.2,476.7,250.2z"/>
	<g>
		<path class="st36" d="M457.4,258.9L457.4,258.9c-17.9,0-32.4-14.5-32.4-32.4l0,0c0-17.9,14.5-32.4,32.4-32.4l0,0
			c17.9,0,32.4,14.5,32.4,32.4l0,0C489.8,244.4,475.3,258.9,457.4,258.9z"/>
		<text transform="matrix(1 0 0 1 436.3477 242.9814)" class="st37 st38 st39">cog</text>
	</g>
	<g>
		<path class="st24" d="M450.4,253.2c-1.9-0.7-18.3-6.1-17.9-2.7c0.4,3.8,6,7,8.1,7.6c3.7,1.1,9.6,0.3,11-1.7
			C452.5,255.1,452.2,253.8,450.4,253.2z"/>
		<path class="st24" d="M448.5,251.2c-0.7-0.6-4.6-4.5-5.3-3.8c-1.2,1,1.3,3.7,2.9,5.4c0.9,0.9,2.7,1.6,3.4,0.8
			C450.1,252.9,449.6,252.3,448.5,251.2z"/>
	</g>
	<g>
		<path class="st33" d="M555.2,466.2c-0.6,2.1,0.9,2.4,0.7,3.7c-0.3,1.7-3.1,2.7-4,4.1c-1,1.5-2.6,3.7,3.6,3.8
			c6.7,0.1,10.6-0.1,9.5-3.7s-1.3-5.2-1.3-6.4c0.1-1.2,0-2.4-0.8-3.1C562.1,463.8,556.2,462.5,555.2,466.2z"/>
		<path class="st33" d="M488.4,467c-0.6,1.1-3.5,3.7-7.4,5.4c-4,1.7-12.3,2.5-7.7,4c4.7,1.5,10.1,0.6,12.8,0.2
			c2.8-0.4,5.4-0.5,8.7-0.5c4.3,0,4.3-0.3,3.7-4.9C497.7,464.7,490.3,463.3,488.4,467z"/>
		<path class="st25" d="M547.4,349.1c0,0,13.8-19.8-0.9-41.1l-36.5-3.1c0,0-4.9,23.2-7.1,37.2L547.4,349.1z"/>
		<g>
			<g>
				<path class="st25" d="M532,409.1c-5.8-13.4,8.1-18.3,14.3-8.9c8.8,13.2,16,55.8,17.2,64.9c0.2,1.2,0.6,2.6,0.1,3.2
					c-1,1-3.4,1.4-4.4,1.5c-1.6,0.2-3.2,0.5-3.7-1.5C552.1,455.2,537.6,422.1,532,409.1z"/>
				<path class="st25" d="M525.8,347.6C527,330,536,317.5,545.9,325c4.2,3.1,5.1,8.2,5,12.9c-0.1,4.7-4.2,52.6-4.4,61.3
					c-0.4,19.7-14.8,12.1-15.6,6.5C528.8,391.5,525.1,357.2,525.8,347.6z"/>
			</g>
		</g>
		<path class="st25" d="M498.6,469.9c2.1-20.7,12.8-56,9-73.2c-2.4-11-15.3-12.2-15.7,1c-0.4,14.1,0.5,41.4-3,68.5
			C488.6,468.9,498.3,472.3,498.6,469.9z"/>
		<path class="st25" d="M506.5,400.9c-2.5,5.1-18.1,9-13.5-10.2c2-8.5,11.3-55.8,12.4-60.3s2.9-11.1,5.3-11.6
			c12.2-2.4,21.2,13.1,15.4,29.8C522.3,359.8,511.8,390.4,506.5,400.9z"/>
		<path class="st40" d="M559.2,469.8c1-0.1,3.4-0.5,4.4-1.5c0.5-0.5,0.1-2-0.1-3.2c-1.2-9.1-8.3-51.3-17.1-64.7c0-0.4,0-0.8,0.1-1.2
			c0-1.6,0.2-4.4,0.4-7.9L528.1,343l-2.5,8l0,0c0.1,12.6,3.3,41.9,5.2,54.7c0,0.3,0.1,0.6,0.3,1c0.2,0.8,0.5,1.6,0.9,2.5
			c5.6,13,20.1,46.1,23.5,59.2C556,470.3,557.5,470,559.2,469.8z"/>
	</g>
	<path id="XMLID_38_" class="st24" d="M528.5,184.6c-4.2-4.8-10.3-5.3-15.1-4.8c-6.2,0.7-11.7,4.9-13.5,10.9c-0.8,2.6-0.9,5.6,0.3,9
		c3.9,10.7,7.9,17.6,11.7,19.6c1.4,0.8,4.2,0.3,7.2-0.8c0.4-0.1,0.8,0,1,0.4l1.2,2.3l11-2.4c0,0-1.4-3.1-2.2-6.3
		C531.8,210.6,536.2,193.3,528.5,184.6z"/>
	<path id="XMLID_37_" class="st41" d="M506.4,199.9c1.4-0.1,2.7,0.6,3.2,1.9c0.9,2.1,2.3,5.1,3.4,6.1c0.2,0.2,0.7,0.3,1.2,0
		s0.6-0.7,0.6-0.9c-0.1-0.9-0.8-2.9-1.3-4.3c-0.6-1.7,0.1-3.5,2.2-4c0.4-0.1,1.3,0,1.8,0.1c3.2,1,1,6.1,0.9,8.7
		c0,1.9,2.2,6.2,3.2,6.6c3.3,1.3,8.2,0.1,10.8-3.1c2.6-3.2,3.2-14,1.8-20.5s-6.6-10.1-8.3-10.5c-0.8-0.2-1.5-0.2-2-0.2
		c-0.5,0.1-1-0.1-1.4-0.5c-1.7-1.5-6.9-4.9-15-1.4c-10.2,4.4-11.9,13.8-11.7,18c0.1,2.8,2.3,2.6,3.8,2.1c0.8-0.3,1.7,0,2.4,0.5
		C502.6,199.3,504.1,200.1,506.4,199.9z"/>
	<path id="XMLID_36_" class="st42" d="M521.1,223c0,0-0.9-1.1-0.6-1.7c0.4-0.8,5.3-4.6,10.9-4.4c0.9,0,1.9,0,3,2.3
		c1,2.3,1.3,3.8,1.3,3.8L521.1,223L521.1,223z"/>
	<path id="XMLID_35_" class="st42" d="M546.6,308c-6.1,3.3-8.9,1.7-17.6,1.2c-15.3-0.9-18.9-4.3-18.9-4.3c0.9-0.5,3.3-15.9,2.7-35
		c-0.1-4-0.1-12.8-2-16.3c-1.1-1.9-4.3-5.7-6.3-9.8c-1.7-3.3-2.5-6.8-0.7-9.4c4.5-6.6,11.6-10.1,11.6-10.1s13-5.2,24.1-4
		c7,0.7,13.3,4,15,12.9C558.7,256,546.6,308,546.6,308z"/>
	<path id="XMLID_32_" class="st42" d="M514.9,230.5c-1.6-1-6.4-3.6-12.5,6c-6.2,9.6-11.1,16.8-13.2,18.1c-2.2,1.3-7.5,0.4-9.4,0.4
		s-29.9-2.2-29.9-2.2s-1.9,2.1-1.6,5.4c0,0,25.6,6.7,41.5,6.8c15.9,0.1,27.9-24,28.5-26.9C518.9,235.2,518.7,232.8,514.9,230.5z"/>
	<path id="XMLID_5_" class="st24" d="M513.4,201.2l1.7,5.3c0,0,1.3,1.3,2.5-0.2c1.2-1.4,2.3-6.4,0-7.3
		C515.4,198.3,514,199.5,513.4,201.2z"/>
	<path class="st41" d="M506.4,199.9c0,0-4.5,1.4-9.5-0.6s-9.2-10.1-9.2-10.1s1.6,0.9,3.1,0.6c0,0-2.4-1.2-3.1-4.1
		c0,0,8.9,2.9,12.2-2.2c3.3-5,12.3-5.7,12.3-5.7L506.4,199.9z"/>
	<path class="st43" d="M511.1,249.4c-0.8,0.4-0.9,2-1,3c0.5,0.7,0.5,0.8,0.8,1.2c2,3.4,1.9,12.3,2,16.3c0.6,19.1-1.9,34.5-2.7,35
		c0,0,0.4,0.4,1.6,1c2.3-7.9,4.3-25.4,4.4-32C516.4,263.8,512.7,248.6,511.1,249.4z"/>
</g>
<g>
	<path class="st4" d="M247.3,337.6H83.2c-1.7,0-3.1-1.4-3.1-3.1v-33.8c0-1.7,1.4-3.1,3.1-3.1h164.1c1.7,0,3.1,1.4,3.1,3.1v33.8
		C250.5,336.2,249.1,337.6,247.3,337.6z"/>
	
		<linearGradient id="SVGID_5_" gradientUnits="userSpaceOnUse" x1="246.9782" y1="186.7644" x2="139.7435" y2="186.5317" gradientTransform="matrix(1 0 0 -1 0 500)">
		<stop  offset="0" style="stop-color:#FF6E3A"/>
		<stop  offset="0.9826" style="stop-color:#FFB846"/>
	</linearGradient>
	<path class="st44" d="M244.5,333.4H80.4c-1.7,0-3.1-1.4-3.1-3.1v-33.8c0-1.7,1.4-3.1,3.1-3.1h164.1c1.7,0,3.1,1.4,3.1,3.1v33.8
		C247.6,332,246.2,333.4,244.5,333.4z"/>
	<g>
		<path class="st5" d="M227.4,320.2H97.5c-3.8,0-6.8-3.1-6.8-6.8l0,0c0-3.8,3.1-6.8,6.8-6.8h129.9c3.8,0,6.8,3.1,6.8,6.8l0,0
			C234.2,317.2,231.1,320.2,227.4,320.2z"/>
		<circle class="st5" cx="219" cy="313.4" r="15.1"/>
		<line class="st45" x1="98.6" y1="310.3" x2="98.6" y2="316.6"/>
		<g>
			<circle class="st46" cx="218.1" cy="312.7" r="4.9"/>
			<line class="st47" x1="224.9" y1="319.1" x2="221.5" y2="316.2"/>
		</g>
	</g>
</g>
</svg>
